<svg width="740" height="679" viewBox="0 0 740 679" fill="none" xmlns="http://www.w3.org/2000/svg">
<path d="M734 285.437L716.96 285.437L716.96 282.221L724.616 282.221L716.96 273.437L716.96 269.117L725.24 278.645L734 268.709L734 273.197L726.2 282.221L734 282.221L734 285.437ZM721.856 255.702L739.112 263.19L739.112 266.262L733.784 263.958L721.856 269.43L721.856 265.974L730.112 262.398L721.856 258.822L721.856 255.702ZM734 244.359L729.992 247.911L734 251.511L734 255.039L728 249.663L721.856 255.063L721.856 251.127L725.816 247.695L721.856 244.143L721.856 240.591L727.808 245.943L734 240.591L734 244.359ZM721.544 232.788C721.544 230.916 722.152 229.364 723.368 228.132C724.568 226.884 726.088 226.26 727.928 226.26C729.784 226.26 731.312 226.892 732.512 228.156C733.712 229.404 734.312 230.948 734.312 232.788C734.312 234.66 733.704 236.22 732.488 237.468C731.272 238.716 729.752 239.34 727.928 239.34C726.056 239.34 724.528 238.716 723.344 237.468C722.144 236.204 721.544 234.644 721.544 232.788ZM731.576 232.788C731.576 231.748 731.224 230.916 730.52 230.292C729.816 229.668 728.952 229.356 727.928 229.356C726.904 229.356 726.032 229.668 725.312 230.292C724.992 230.612 724.736 230.972 724.544 231.372C724.368 231.82 724.28 232.292 724.28 232.788C724.28 233.796 724.64 234.628 725.36 235.284C726.064 235.924 726.92 236.244 727.928 236.244C728.952 236.244 729.816 235.916 730.52 235.26C731.224 234.604 731.576 233.78 731.576 232.788ZM734 223.102L721.856 223.102L721.856 220.054L726.488 220.054L726.488 214.246L721.856 214.246L721.856 211.198L734 211.198L734 214.246L729.104 214.246L729.104 220.054L734 220.054L734 223.102ZM734 207.211L721.856 207.211L721.856 204.163L726.488 204.163L726.488 198.355L721.856 198.355L721.856 195.307L734 195.307L734 198.355L729.104 198.355L729.104 204.163L734 204.163L734 207.211ZM721.544 185.584C721.544 183.712 722.152 182.16 723.368 180.928C724.568 179.68 726.088 179.056 727.928 179.056C729.784 179.056 731.312 179.688 732.512 180.952C733.712 182.2 734.312 183.744 734.312 185.584C734.312 187.456 733.704 189.016 732.488 190.264C731.272 191.512 729.752 192.136 727.928 192.136C726.056 192.136 724.528 191.512 723.344 190.264C722.144 189 721.544 187.44 721.544 185.584ZM731.576 185.584C731.576 184.544 731.224 183.712 730.52 183.088C729.816 182.464 728.952 182.152 727.928 182.152C726.904 182.152 726.032 182.464 725.312 183.088C724.992 183.408 724.736 183.768 724.544 184.168C724.368 184.616 724.28 185.088 724.28 185.584C724.28 186.592 724.64 187.424 725.36 188.08C726.064 188.72 726.92 189.04 727.928 189.04C728.952 189.04 729.816 188.712 730.52 188.056C731.224 187.4 731.576 186.576 731.576 185.584ZM721.544 170.355C721.544 168.403 722.16 166.859 723.392 165.723C724.608 164.571 726.176 163.995 728.096 163.995L728.432 163.995L728.432 173.643C729.392 173.595 730.192 173.235 730.832 172.563C731.456 171.891 731.768 171.075 731.768 170.115C731.768 169.619 731.712 169.203 731.6 168.867C731.392 168.099 731.008 167.531 730.448 167.163L730.448 164.139C731.232 164.267 731.92 164.651 732.512 165.291C733.104 165.915 733.56 166.643 733.88 167.475C734.168 168.211 734.312 169.091 734.312 170.115C734.312 172.035 733.72 173.619 732.536 174.867C731.336 176.099 729.8 176.715 727.928 176.715C726.04 176.715 724.504 176.123 723.32 174.939C722.136 173.739 721.544 172.211 721.544 170.355ZM723.92 170.355C723.92 171.155 724.128 171.835 724.544 172.395C724.96 172.955 725.552 173.339 726.32 173.547L726.32 167.211C725.552 167.435 724.96 167.819 724.544 168.363C724.128 168.907 723.92 169.571 723.92 170.355ZM722.192 148.231C722.192 146.407 722.744 144.967 723.848 143.911C724.952 142.855 726.408 142.327 728.216 142.327C730.072 142.327 731.552 142.951 732.656 144.199C733.76 145.447 734.312 146.999 734.312 148.855C734.312 150.919 733.688 152.527 732.44 153.679C731.176 154.815 729.528 155.383 727.496 155.383C726.2 155.383 725.104 155.335 724.208 155.239C723.312 155.143 722.432 154.951 721.568 154.663C720.688 154.375 719.968 153.975 719.408 153.463C718.848 152.935 718.36 152.239 717.944 151.375C717.512 150.511 717.2 149.463 717.008 148.231L716.216 143.407L718.904 143.407L719.672 148.183C719.912 149.687 720.36 150.759 721.016 151.399C721.656 152.039 722.696 152.431 724.136 152.575C722.84 151.791 722.192 150.343 722.192 148.231ZM731.624 148.855C731.624 147.799 731.32 146.967 730.712 146.359C730.088 145.735 729.264 145.423 728.24 145.423C727.2 145.423 726.384 145.743 725.792 146.383C725.184 147.007 724.88 147.831 724.88 148.855C724.88 149.895 725.184 150.727 725.792 151.351C726.4 151.975 727.216 152.287 728.24 152.287C729.296 152.287 730.128 151.975 730.736 151.351C731.328 150.711 731.624 149.879 731.624 148.855ZM728.48 138.447L721.856 137.799L721.856 128.007L734 128.007L734 131.055L724.472 131.055L724.472 135.303L728.792 135.711C729.608 135.775 730.304 135.879 730.88 136.023C731.44 136.151 731.992 136.359 732.536 136.647C733.064 136.935 733.464 137.351 733.736 137.895C733.992 138.439 734.12 139.103 734.12 139.887L734.12 140.703L731.336 140.703L731.336 140.415C731.336 140.063 731.288 139.767 731.192 139.527C731.048 139.079 730.608 138.783 729.872 138.639C729.456 138.559 728.992 138.495 728.48 138.447ZM734 115.007L732.08 115.007C732.256 115.119 732.44 115.239 732.632 115.367C733.72 116.247 734.264 117.495 734.264 119.111C734.264 120.871 733.648 122.263 732.416 123.287C731.184 124.311 729.688 124.823 727.928 124.823C726.136 124.823 724.632 124.303 723.416 123.263C722.2 122.207 721.592 120.815 721.592 119.087C721.592 118.031 721.872 117.063 722.432 116.183C722.784 115.703 723.2 115.319 723.68 115.031L721.856 115.031L721.856 111.959L734 111.959L734 115.007ZM727.928 114.983C726.888 114.983 726.024 115.287 725.336 115.895C724.632 116.487 724.28 117.287 724.28 118.295C724.28 119.335 724.632 120.167 725.336 120.791C726.024 121.399 726.888 121.703 727.928 121.703C729.032 121.703 729.896 121.391 730.52 120.767C730.872 120.463 731.128 120.103 731.288 119.687C731.48 119.271 731.576 118.807 731.576 118.295C731.576 117.287 731.224 116.487 730.52 115.895C729.8 115.287 728.936 114.983 727.928 114.983ZM734 101.016L728.672 101.016L734 106.08L734 109.992L727.76 104.04L721.856 109.752L721.856 105.84L726.872 101.016L721.856 101.016L721.856 98.0882L726.848 98.0882L721.856 93.2882L721.856 89.4002L727.688 95.0402L734 89.0402L734 93.0482L728.696 98.0882L734 98.0882L734 101.016ZM721.544 81.8546C721.544 79.9026 722.16 78.3586 723.392 77.2226C724.608 76.0706 726.176 75.4946 728.096 75.4946L728.432 75.4946L728.432 85.1426C729.392 85.0946 730.192 84.7346 730.832 84.0626C731.456 83.3906 731.768 82.5746 731.768 81.6146C731.768 81.1186 731.712 80.7026 731.6 80.3666C731.392 79.5986 731.008 79.0306 730.448 78.6626L730.448 75.6386C731.232 75.7666 731.92 76.1506 732.512 76.7906C733.104 77.4146 733.56 78.1426 733.88 78.9746C734.168 79.7106 734.312 80.5906 734.312 81.6146C734.312 83.5346 733.72 85.1186 732.536 86.3666C731.336 87.5986 729.8 88.2146 727.928 88.2146C726.04 88.2146 724.504 87.6226 723.32 86.4386C722.136 85.2386 721.544 83.7106 721.544 81.8546ZM723.92 81.8546C723.92 82.6546 724.128 83.3346 724.544 83.8946C724.96 84.4546 725.552 84.8386 726.32 85.0466L726.32 78.7106C725.552 78.9346 724.96 79.3186 724.544 79.8626C724.128 80.4066 723.92 81.0706 723.92 81.8546ZM734 72.422L721.856 72.422L721.856 69.374L726.488 69.374L726.488 63.566L721.856 63.566L721.856 60.518L734 60.518L734 63.566L729.104 63.566L729.104 69.374L734 69.374L734 72.422ZM725.864 45.1314L725.864 48.1794C725.432 48.4674 725.12 48.7234 724.928 48.9474C724.736 49.2194 724.576 49.5074 724.448 49.8114C724.32 50.1954 724.256 50.6114 724.256 51.0594C724.256 52.0354 724.624 52.8114 725.36 53.3874C726.08 53.9474 726.936 54.2274 727.928 54.2274C729.016 54.2274 729.88 53.9314 730.52 53.3394C731.24 52.7634 731.6 51.9954 731.6 51.0354C731.6 50.5554 731.528 50.1314 731.384 49.7634C731.176 49.1234 730.84 48.6594 730.376 48.3714C730.312 48.3234 730.232 48.2674 730.136 48.2034L729.992 48.1314L729.992 45.1314C730.792 45.1954 731.544 45.5394 732.248 46.1634C732.952 46.7874 733.472 47.5074 733.808 48.3234C734.144 49.0754 734.312 49.9954 734.312 51.0834C734.312 52.8914 733.696 54.3874 732.464 55.5714C731.232 56.7554 729.72 57.3474 727.928 57.3474C726.088 57.3474 724.568 56.7634 723.368 55.5954C722.152 54.4114 721.544 52.9154 721.544 51.1074C721.544 49.9234 721.808 48.8114 722.336 47.7714C722.848 46.7314 723.608 45.9874 724.616 45.5394C725.144 45.3154 725.56 45.1794 725.864 45.1314ZM734 38.8265L724.472 38.8265L724.472 43.5545L721.856 43.5545L721.856 31.0745L724.472 31.0745L724.472 35.7785L734 35.7785L734 38.8265ZM734 28.383L721.856 28.383L721.856 21.327C721.856 20.143 722.12 19.143 722.648 18.327C723.16 17.511 723.968 17.103 725.072 17.103C726.08 17.103 726.848 17.495 727.376 18.279C727.504 18.439 727.616 18.663 727.712 18.951C727.776 18.679 727.888 18.399 728.048 18.111C728.192 17.887 728.384 17.655 728.624 17.415C729.12 16.967 729.744 16.743 730.496 16.743C731.68 16.743 732.56 17.183 733.136 18.063C733.712 18.943 734 20.015 734 21.279L734 28.383ZM724.184 21.807L724.184 25.335L726.728 25.335L726.728 21.807C726.728 20.687 726.288 20.127 725.408 20.127C724.592 20.127 724.184 20.687 724.184 21.807ZM728.96 21.687L728.96 25.335L731.672 25.335L731.672 21.687C731.672 20.471 731.192 19.863 730.232 19.863C729.384 19.863 728.96 20.471 728.96 21.687ZM721.544 7.69384C721.544 5.82184 722.152 4.26984 723.368 3.03784C724.568 1.78984 726.088 1.16584 727.928 1.16584C729.784 1.16584 731.312 1.79784 732.512 3.06184C733.712 4.30984 734.312 5.85384 734.312 7.69384C734.312 9.56584 733.704 11.1258 732.488 12.3738C731.272 13.6218 729.752 14.2458 727.928 14.2458C726.056 14.2458 724.528 13.6218 723.344 12.3738C722.144 11.1098 721.544 9.54984 721.544 7.69384ZM731.576 7.69384C731.576 6.65384 731.224 5.82184 730.52 5.19784C729.816 4.57384 728.952 4.26184 727.928 4.26184C726.904 4.26184 726.032 4.57384 725.312 5.19784C724.992 5.51784 724.736 5.87784 724.544 6.27784C724.368 6.72584 724.28 7.19784 724.28 7.69384C724.28 8.70184 724.64 9.53384 725.36 10.1898C726.064 10.8298 726.92 11.1498 727.928 11.1498C728.952 11.1498 729.816 10.8218 730.52 10.1658C731.224 9.50984 731.576 8.68584 731.576 7.69384Z" fill="white"/>
<path d="M4.704 534L4.704 499.92H11.136L11.136 515.232L28.704 499.92H37.344L18.288 516.48L38.16 534H29.184L11.136 518.4L11.136 534H4.704ZM52.4873 509.088C56.2313 509.088 59.3353 510.304 61.7993 512.736C64.2953 515.136 65.5433 518.176 65.5433 521.856C65.5433 525.568 64.2793 528.624 61.7513 531.024C59.2553 533.424 56.1673 534.624 52.4873 534.624C48.7433 534.624 45.6233 533.408 43.1273 530.976C40.6313 528.544 39.3833 525.504 39.3833 521.856C39.3833 518.112 40.6313 515.056 43.1273 512.688C45.6553 510.288 48.7753 509.088 52.4873 509.088ZM52.4873 529.152C54.5673 529.152 56.2313 528.448 57.4793 527.04C58.7273 525.632 59.3513 523.904 59.3513 521.856C59.3513 519.808 58.7273 518.064 57.4793 516.624C56.8393 515.984 56.1193 515.472 55.3193 515.088C54.4233 514.736 53.4793 514.56 52.4873 514.56C50.4713 514.56 48.8073 515.28 47.4953 516.72C46.2153 518.128 45.5753 519.84 45.5753 521.856C45.5753 523.904 46.2313 525.632 47.5433 527.04C48.8553 528.448 50.5033 529.152 52.4873 529.152ZM71.859 534L71.859 509.712H80.211L88.275 526.56L96.339 509.712H104.499L104.499 534H98.547L98.547 515.904L90.051 534.096H85.971L77.523 516.048L77.523 534H71.859ZM124.981 543.936V534.624C120.981 534.528 117.621 533.344 114.901 531.072C112.181 528.768 110.821 525.696 110.821 521.856C110.821 517.952 112.181 514.88 114.901 512.64C117.653 510.368 121.013 509.184 124.981 509.088V498.672H131.125V509.088C135.125 509.184 138.485 510.384 141.205 512.688C143.925 514.96 145.285 518.016 145.285 521.856C145.285 525.76 143.909 528.848 141.157 531.12C138.437 533.36 135.093 534.528 131.125 534.624V543.936H124.981ZM117.013 521.856C117.013 524.16 117.765 525.952 119.269 527.232C120.773 528.512 122.677 529.184 124.981 529.248L124.981 514.464C122.613 514.56 120.693 515.248 119.221 516.528C117.749 517.808 117.013 519.584 117.013 521.856ZM136.837 527.232C138.341 525.952 139.093 524.16 139.093 521.856C139.093 519.552 138.341 517.76 136.837 516.48C135.365 515.2 133.461 514.528 131.125 514.464V529.248C133.461 529.184 135.365 528.512 136.837 527.232ZM163.112 509.088C166.856 509.088 169.96 510.304 172.424 512.736C174.92 515.136 176.168 518.176 176.168 521.856C176.168 525.568 174.904 528.624 172.376 531.024C169.88 533.424 166.792 534.624 163.112 534.624C159.368 534.624 156.248 533.408 153.752 530.976C151.256 528.544 150.008 525.504 150.008 521.856C150.008 518.112 151.256 515.056 153.752 512.688C156.28 510.288 159.4 509.088 163.112 509.088ZM163.112 529.152C165.192 529.152 166.856 528.448 168.104 527.04C169.352 525.632 169.976 523.904 169.976 521.856C169.976 519.808 169.352 518.064 168.104 516.624C167.464 515.984 166.744 515.472 165.944 515.088C165.048 514.736 164.104 514.56 163.112 514.56C161.096 514.56 159.432 515.28 158.12 516.72C156.84 518.128 156.2 519.84 156.2 521.856C156.2 523.904 156.856 525.632 158.168 527.04C159.48 528.448 161.128 529.152 163.112 529.152ZM188.532 530.304V544.176H182.484V509.712L188.58 509.712V513.552C188.676 513.296 188.932 512.944 189.348 512.496C190.212 511.408 191.316 510.592 192.66 510.048C194.036 509.472 195.46 509.184 196.932 509.184C200.484 509.184 203.284 510.416 205.332 512.88C207.412 515.312 208.452 518.304 208.452 521.856C208.452 525.472 207.396 528.496 205.284 530.928C203.204 533.328 200.42 534.528 196.932 534.528C195.236 534.528 193.62 534.16 192.084 533.424C190.548 532.688 189.364 531.648 188.532 530.304ZM190.308 516.672C189.092 518.048 188.484 519.776 188.484 521.856C188.484 523.936 189.108 525.68 190.356 527.088C191.636 528.464 193.3 529.152 195.348 529.152C197.428 529.152 199.092 528.464 200.34 527.088C201.62 525.68 202.26 523.936 202.26 521.856C202.26 518.624 200.916 516.368 198.228 515.088C197.332 514.736 196.372 514.56 195.348 514.56C193.236 514.56 191.556 515.264 190.308 516.672ZM220.706 534V514.944H211.25V509.712H236.21V514.944H226.802V534H220.706ZM253.968 534V509.712H260.016V525.984L272.208 509.712H278.304V534H272.208V517.68L260.016 534H253.968ZM322.689 509.712L307.713 544.224H301.569L306.177 533.568L295.233 509.712H302.145L309.297 526.224L316.449 509.712H322.689ZM327.232 534V509.712H333.328V518.976H337.264C337.968 515.936 339.456 513.536 341.728 511.776C344 509.984 346.688 509.088 349.792 509.088C353.504 509.088 356.56 510.304 358.96 512.736C361.392 515.168 362.608 518.208 362.608 521.856C362.608 525.536 361.376 528.592 358.912 531.024C356.48 533.424 353.44 534.624 349.792 534.624C346.624 534.624 343.84 533.664 341.44 531.744C339.072 529.792 337.648 527.28 337.168 524.208H333.328V534H327.232ZM349.792 529.2C351.808 529.2 353.408 528.48 354.592 527.04C355.808 525.6 356.416 523.872 356.416 521.856C356.416 519.808 355.808 518.08 354.592 516.672C353.376 515.232 351.776 514.512 349.792 514.512C347.776 514.512 346.16 515.232 344.944 516.672C343.76 518.112 343.168 519.84 343.168 521.856C343.168 523.904 343.776 525.648 344.992 527.088C346.208 528.496 347.808 529.2 349.792 529.2ZM374.831 534V514.944H365.375V509.712H390.335V514.944H380.927V534L374.831 534Z" fill="white"/>
<path d="M16.344 580L14.112 575.2H4.704L2.496 580H0.912L8.832 562.864H10.056L18 580H16.344ZM5.376 573.76H13.464L9.408 565.024L5.376 573.76ZM22.8021 573.424V580H21.2901V568.432H22.8021V570.832C23.3461 569.2 24.7941 568.384 27.1461 568.384H30.1221V569.872H27.1221C24.2421 569.872 22.8021 571.056 22.8021 573.424ZM41.8341 578.608V580H39.3861C38.0421 580 37.0341 579.688 36.3621 579.064C35.6901 578.424 35.3541 577.432 35.3541 576.088V569.8H31.6341V568.432H35.3541V562.96H36.8661V568.432H41.8341V569.8H36.8661V575.848C36.8661 576.84 37.0741 577.552 37.4901 577.984C37.9221 578.4 38.6341 578.608 39.6261 578.608H41.8341ZM50.2101 568.144C51.9541 568.144 53.3461 568.72 54.3861 569.872C55.4421 571.008 55.9941 572.448 56.0421 574.192H45.9381V574.216C45.9381 575.528 46.3621 576.632 47.2101 577.528C48.0581 578.424 49.1301 578.872 50.4261 578.872C51.9781 578.872 53.1861 578.392 54.0501 577.432C54.2421 577.176 54.3701 577 54.4341 576.904H55.8981C55.5141 578.216 54.4821 579.208 52.8021 579.88C52.1941 580.152 51.4021 580.288 50.4261 580.288C48.6981 580.288 47.2581 579.704 46.1061 578.536C44.9701 577.368 44.4021 575.928 44.4021 574.216C44.4021 572.488 44.9461 571.048 46.0341 569.896C47.1381 568.728 48.5301 568.144 50.2101 568.144ZM50.2101 569.464C49.1381 569.464 48.2261 569.776 47.4741 570.4C46.7381 571.008 46.2581 571.84 46.0341 572.896H54.3861C54.1621 571.824 53.6821 570.984 52.9461 570.376C52.2101 569.768 51.2981 569.464 50.2101 569.464ZM59.8224 580L59.8224 562.336H61.3344L61.3344 580H59.8224ZM72.3548 573.808V572.512H84.7388V573.808H72.3548ZM96.8556 575.08L97.5516 568.432H106V580H104.488V569.8H98.7516L98.1996 575.152C98.1516 575.744 98.0956 576.232 98.0316 576.616C97.9676 577 97.8556 577.44 97.6956 577.936C97.5516 578.432 97.3596 578.824 97.1196 579.112C96.8796 579.4 96.5516 579.648 96.1356 579.856C95.7196 580.048 95.2316 580.144 94.6716 580.144H94.1916V578.752H94.4796C95.1516 578.752 95.6396 578.592 95.9436 578.272C96.2476 577.952 96.4716 577.448 96.6156 576.76C96.7436 576.008 96.8236 575.448 96.8556 575.08ZM110.751 580V568.432H112.263V578.008L119.943 568.432H121.455V580H119.943V570.4L112.263 580H110.751ZM134.5 578.632V569.8H128.74L128.308 573.712C128.18 574.816 128.02 575.816 127.828 576.712C127.636 577.544 127.396 578.184 127.108 578.632H134.5ZM125.62 583.576H124.252V578.632H125.596C126.22 577.88 126.668 576.2 126.94 573.592L127.516 568.432H136.012V578.632H138.148V583.576H136.78V580H125.62V583.576ZM145.999 568.144C147.743 568.144 149.135 568.72 150.175 569.872C151.231 571.008 151.783 572.448 151.831 574.192H141.727V574.216C141.727 575.528 142.151 576.632 142.999 577.528C143.847 578.424 144.919 578.872 146.215 578.872C147.767 578.872 148.975 578.392 149.839 577.432C150.031 577.176 150.159 577 150.223 576.904H151.687C151.303 578.216 150.271 579.208 148.591 579.88C147.983 580.152 147.191 580.288 146.215 580.288C144.487 580.288 143.047 579.704 141.895 578.536C140.759 577.368 140.191 575.928 140.191 574.216C140.191 572.488 140.735 571.048 141.823 569.896C142.927 568.728 144.319 568.144 145.999 568.144ZM145.999 569.464C144.927 569.464 144.015 569.776 143.263 570.4C142.527 571.008 142.047 571.84 141.823 572.896H150.175C149.951 571.824 149.471 570.984 148.735 570.376C147.999 569.768 147.087 569.464 145.999 569.464ZM157.052 577.576V585.376H155.564V568.432H157.052V570.904C157.404 570.056 158.02 569.384 158.9 568.888C159.78 568.392 160.7 568.144 161.66 568.144C163.388 568.144 164.78 568.728 165.836 569.896C166.892 571.064 167.42 572.504 167.42 574.216C167.42 575.944 166.876 577.392 165.788 578.56C164.716 579.712 163.34 580.288 161.66 580.288C160.332 580.288 159.244 579.92 158.396 579.184C157.756 578.704 157.308 578.168 157.052 577.576ZM157.028 574.216C157.028 575.528 157.444 576.632 158.276 577.528C159.108 578.408 160.164 578.848 161.444 578.848C162.756 578.848 163.82 578.4 164.636 577.504C165.468 576.608 165.884 575.512 165.884 574.216C165.884 572.888 165.468 571.784 164.636 570.904C163.804 570.008 162.74 569.56 161.444 569.56C160.148 569.56 159.084 570.016 158.252 570.928C157.436 571.824 157.028 572.92 157.028 574.216ZM177.782 580V568.432H183.902C185.006 568.432 185.918 568.672 186.638 569.152C187.358 569.632 187.718 570.392 187.718 571.432C187.718 572.04 187.542 572.592 187.19 573.088C186.838 573.568 186.374 573.872 185.798 574C186.502 574.128 187.07 574.44 187.502 574.936C187.934 575.416 188.15 576.008 188.15 576.712C188.15 577.832 187.75 578.664 186.95 579.208C186.15 579.736 185.158 580 183.974 580H177.782ZM183.926 569.776H179.294V573.4H183.878C185.446 573.4 186.23 572.776 186.23 571.528C186.23 570.36 185.462 569.776 183.926 569.776ZM184.022 574.744H179.294V578.656H183.998C185.726 578.656 186.59 577.992 186.59 576.664C186.59 575.384 185.734 574.744 184.022 574.744ZM198.595 580V568.432H208.819V580H207.307V569.8H200.107V580H198.595ZM215.059 577.576V585.376H213.571V568.432H215.059V570.904C215.411 570.056 216.027 569.384 216.907 568.888C217.787 568.392 218.707 568.144 219.667 568.144C221.395 568.144 222.787 568.728 223.843 569.896C224.899 571.064 225.427 572.504 225.427 574.216C225.427 575.944 224.883 577.392 223.795 578.56C222.723 579.712 221.347 580.288 219.667 580.288C218.339 580.288 217.251 579.92 216.403 579.184C215.763 578.704 215.315 578.168 215.059 577.576ZM215.035 574.216C215.035 575.528 215.451 576.632 216.283 577.528C217.115 578.408 218.171 578.848 219.451 578.848C220.763 578.848 221.827 578.4 222.643 577.504C223.475 576.608 223.891 575.512 223.891 574.216C223.891 572.888 223.475 571.784 222.643 570.904C221.811 570.008 220.747 569.56 219.451 569.56C218.155 569.56 217.091 570.016 216.259 570.928C215.443 571.824 215.035 572.92 215.035 574.216ZM234.433 568.144C236.145 568.144 237.569 568.736 238.705 569.92C239.857 571.088 240.433 572.52 240.433 574.216C240.433 575.928 239.857 577.368 238.705 578.536C237.553 579.704 236.129 580.288 234.433 580.288C232.737 580.288 231.313 579.696 230.161 578.512C229.009 577.328 228.433 575.896 228.433 574.216C228.433 572.52 229.009 571.088 230.161 569.92C231.329 568.736 232.753 568.144 234.433 568.144ZM234.433 578.872C235.745 578.872 236.817 578.424 237.649 577.528C238.481 576.632 238.897 575.528 238.897 574.216C238.897 572.888 238.473 571.776 237.625 570.88C236.793 569.984 235.729 569.536 234.433 569.536C233.137 569.536 232.073 569.992 231.241 570.904C230.409 571.816 229.993 572.92 229.993 574.216C229.993 575.528 230.409 576.632 231.241 577.528C232.089 578.424 233.153 578.872 234.433 578.872ZM244.298 580V568.432H245.81V578.008L253.49 568.432H255.002V580H253.49V570.4L245.81 580H244.298ZM264.255 578.896C266.607 578.896 267.783 578.168 267.783 576.712C267.783 575.416 266.727 574.768 264.615 574.768H262.767V573.424H264.639C266.527 573.424 267.471 572.784 267.471 571.504C267.471 570.176 266.383 569.512 264.207 569.512C262.879 569.512 261.823 569.904 261.039 570.688C260.847 570.896 260.671 571.136 260.511 571.408H259.023C259.327 570.352 259.975 569.544 260.967 568.984C261.975 568.408 263.063 568.12 264.231 568.12C265.031 568.12 265.759 568.216 266.415 568.408C267.087 568.584 267.679 568.936 268.191 569.464C268.703 569.976 268.959 570.64 268.959 571.456C268.959 572.112 268.759 572.672 268.359 573.136C267.975 573.6 267.463 573.904 266.823 574.048C267.559 574.16 268.159 574.448 268.623 574.912C269.103 575.376 269.343 575.968 269.343 576.688C269.343 577.952 268.839 578.872 267.831 579.448C266.823 580.008 265.631 580.288 264.255 580.288C263.439 580.288 262.647 580.168 261.879 579.928C261.127 579.688 260.447 579.288 259.839 578.728C259.231 578.152 258.847 577.472 258.687 576.688H260.223C260.559 577.424 261.095 577.976 261.831 578.344C262.583 578.712 263.391 578.896 264.255 578.896ZM273.337 580V568.432H279.457C280.561 568.432 281.473 568.672 282.193 569.152C282.913 569.632 283.273 570.392 283.273 571.432C283.273 572.04 283.097 572.592 282.745 573.088C282.393 573.568 281.929 573.872 281.353 574C282.057 574.128 282.625 574.44 283.057 574.936C283.489 575.416 283.705 576.008 283.705 576.712C283.705 577.832 283.305 578.664 282.505 579.208C281.705 579.736 280.713 580 279.529 580H273.337ZM279.481 569.776H274.849V573.4H279.433C281.001 573.4 281.785 572.776 281.785 571.528C281.785 570.36 281.017 569.776 279.481 569.776ZM279.577 574.744H274.849V578.656H279.553C281.281 578.656 282.145 577.992 282.145 576.664C282.145 575.384 281.289 574.744 279.577 574.744ZM292.793 568.144C294.505 568.144 295.929 568.736 297.065 569.92C298.217 571.088 298.793 572.52 298.793 574.216C298.793 575.928 298.217 577.368 297.065 578.536C295.913 579.704 294.489 580.288 292.793 580.288C291.097 580.288 289.673 579.696 288.521 578.512C287.369 577.328 286.793 575.896 286.793 574.216C286.793 572.52 287.369 571.088 288.521 569.92C289.689 568.736 291.113 568.144 292.793 568.144ZM292.793 578.872C294.105 578.872 295.177 578.424 296.009 577.528C296.841 576.632 297.257 575.528 297.257 574.216C297.257 572.888 296.833 571.776 295.985 570.88C295.153 569.984 294.089 569.536 292.793 569.536C291.497 569.536 290.433 569.992 289.601 570.904C288.769 571.816 288.353 572.92 288.353 574.216C288.353 575.528 288.769 576.632 289.601 577.528C290.449 578.424 291.513 578.872 292.793 578.872ZM310.844 578.632V569.8H305.084L304.652 573.712C304.524 574.816 304.364 575.816 304.172 576.712C303.98 577.544 303.74 578.184 303.452 578.632H310.844ZM301.964 583.576H300.596V578.632H301.94C302.564 577.88 303.012 576.2 303.284 573.592L303.86 568.432H312.356V578.632H314.492V583.576H313.124V580H301.964V583.576ZM327.719 571.84H326.207C326.095 571.616 325.951 571.384 325.775 571.144C324.895 570.072 323.735 569.536 322.295 569.536C321.047 569.536 320.031 570 319.247 570.928C318.479 571.856 318.095 572.952 318.095 574.216C318.095 575.544 318.495 576.64 319.295 577.504C320.047 578.416 321.055 578.872 322.319 578.872C323.167 578.872 323.951 578.68 324.671 578.296C325.407 577.896 325.927 577.328 326.231 576.592H327.719C327.415 577.744 326.743 578.648 325.703 579.304C324.679 579.96 323.551 580.288 322.319 580.288C320.655 580.288 319.271 579.696 318.167 578.512C317.079 577.312 316.535 575.88 316.535 574.216C316.535 572.52 317.079 571.088 318.167 569.92C319.255 568.736 320.631 568.144 322.295 568.144C323.351 568.144 324.319 568.368 325.199 568.816C326.079 569.248 326.767 569.896 327.263 570.76C327.503 571.256 327.655 571.616 327.719 571.84ZM334.711 580V569.8H329.671V568.432H341.263V569.8H336.223V580H334.711ZM344.61 580V568.432H350.73C351.834 568.432 352.746 568.672 353.466 569.152C354.186 569.632 354.546 570.392 354.546 571.432C354.546 572.04 354.37 572.592 354.018 573.088C353.666 573.568 353.202 573.872 352.626 574C353.33 574.128 353.898 574.44 354.33 574.936C354.762 575.416 354.978 576.008 354.978 576.712C354.978 577.832 354.578 578.664 353.778 579.208C352.978 579.736 351.986 580 350.802 580H344.61ZM350.754 569.776H346.122V573.4H350.706C352.274 573.4 353.058 572.776 353.058 571.528C353.058 570.36 352.29 569.776 350.754 569.776ZM350.85 574.744H346.122V578.656H350.826C352.554 578.656 353.418 577.992 353.418 576.664C353.418 575.384 352.562 574.744 350.85 574.744ZM363.874 568.144C365.618 568.144 367.01 568.72 368.05 569.872C369.106 571.008 369.658 572.448 369.706 574.192L359.602 574.192V574.216C359.602 575.528 360.026 576.632 360.874 577.528C361.722 578.424 362.794 578.872 364.09 578.872C365.642 578.872 366.85 578.392 367.714 577.432C367.906 577.176 368.034 577 368.098 576.904H369.562C369.178 578.216 368.146 579.208 366.466 579.88C365.858 580.152 365.066 580.288 364.09 580.288C362.362 580.288 360.922 579.704 359.77 578.536C358.634 577.368 358.066 575.928 358.066 574.216C358.066 572.488 358.61 571.048 359.698 569.896C360.802 568.728 362.194 568.144 363.874 568.144ZM363.874 569.464C362.802 569.464 361.89 569.776 361.138 570.4C360.402 571.008 359.922 571.84 359.698 572.896L368.05 572.896C367.826 571.824 367.346 570.984 366.61 570.376C365.874 569.768 364.962 569.464 363.874 569.464ZM385.379 568.384C387.107 568.384 388.515 568.952 389.603 570.088C390.691 571.208 391.235 572.624 391.235 574.336C391.235 576.064 390.659 577.488 389.507 578.608C388.371 579.728 386.947 580.288 385.235 580.288C383.411 580.288 381.955 579.696 380.867 578.512C379.779 577.312 379.235 575.808 379.235 574C379.235 573.584 379.243 573.288 379.259 573.112L379.283 572.32C379.283 571.968 379.291 571.696 379.307 571.504C379.323 571.264 379.347 570.96 379.379 570.592C379.571 568.24 380.099 566.52 380.963 565.432C381.843 564.344 383.363 563.6 385.523 563.2L390.347 562.312V563.728L385.547 564.616C384.299 564.872 383.331 565.24 382.643 565.72C381.971 566.2 381.491 566.984 381.203 568.072C380.995 568.856 380.859 569.776 380.795 570.832C381.659 569.2 383.187 568.384 385.379 568.384ZM385.235 578.872C386.547 578.872 387.619 578.44 388.451 577.576C389.283 576.712 389.699 575.632 389.699 574.336C389.699 573.008 389.283 571.92 388.451 571.072C387.619 570.208 386.547 569.776 385.235 569.776C383.923 569.776 382.851 570.216 382.019 571.096C381.203 571.96 380.795 573.04 380.795 574.336C380.795 575.648 381.211 576.736 382.043 577.6C382.875 578.448 383.939 578.872 385.235 578.872ZM396.607 572.488H400.375C401.719 572.488 402.815 572.792 403.663 573.4C404.511 574.008 404.935 574.952 404.935 576.232C404.935 577.496 404.503 578.44 403.639 579.064C402.775 579.688 401.695 580 400.399 580H395.095V568.432H396.607V572.488ZM400.255 573.856H396.607V578.632H400.255C402.335 578.632 403.375 577.832 403.375 576.232C403.375 575.384 403.079 574.776 402.487 574.408C401.895 574.04 401.151 573.856 400.255 573.856ZM407.239 580V568.432H408.727V580H407.239ZM417.094 580V569.8H412.054V568.432H423.646V569.8H418.606V580H417.094ZM431.496 568.144C433.208 568.144 434.632 568.736 435.768 569.92C436.92 571.088 437.496 572.52 437.496 574.216C437.496 575.928 436.92 577.368 435.768 578.536C434.616 579.704 433.192 580.288 431.496 580.288C429.8 580.288 428.376 579.696 427.224 578.512C426.072 577.328 425.496 575.896 425.496 574.216C425.496 572.52 426.072 571.088 427.224 569.92C428.392 568.736 429.816 568.144 431.496 568.144ZM431.496 578.872C432.808 578.872 433.88 578.424 434.712 577.528C435.544 576.632 435.96 575.528 435.96 574.216C435.96 572.888 435.536 571.776 434.688 570.88C433.856 569.984 432.792 569.536 431.496 569.536C430.2 569.536 429.136 569.992 428.304 570.904C427.472 571.816 427.056 572.92 427.056 574.216C427.056 575.528 427.472 576.632 428.304 577.528C429.152 578.424 430.216 578.872 431.496 578.872ZM441.36 580V568.432H447.48C448.584 568.432 449.496 568.672 450.216 569.152C450.936 569.632 451.296 570.392 451.296 571.432C451.296 572.04 451.12 572.592 450.768 573.088C450.416 573.568 449.952 573.872 449.376 574C450.08 574.128 450.648 574.44 451.08 574.936C451.512 575.416 451.728 576.008 451.728 576.712C451.728 577.832 451.328 578.664 450.528 579.208C449.728 579.736 448.736 580 447.552 580H441.36ZM447.504 569.776H442.872V573.4H447.456C449.024 573.4 449.808 572.776 449.808 571.528C449.808 570.36 449.04 569.776 447.504 569.776ZM447.6 574.744H442.872V578.656H447.576C449.304 578.656 450.168 577.992 450.168 576.664C450.168 575.384 449.312 574.744 447.6 574.744ZM460.816 568.144C462.528 568.144 463.952 568.736 465.088 569.92C466.24 571.088 466.816 572.52 466.816 574.216C466.816 575.928 466.24 577.368 465.088 578.536C463.936 579.704 462.512 580.288 460.816 580.288C459.12 580.288 457.696 579.696 456.544 578.512C455.392 577.328 454.816 575.896 454.816 574.216C454.816 572.52 455.392 571.088 456.544 569.92C457.712 568.736 459.136 568.144 460.816 568.144ZM460.816 578.872C462.128 578.872 463.2 578.424 464.032 577.528C464.864 576.632 465.28 575.528 465.28 574.216C465.28 572.888 464.856 571.776 464.008 570.88C463.176 569.984 462.112 569.536 460.816 569.536C459.52 569.536 458.456 569.992 457.624 570.904C456.792 571.816 456.376 572.92 456.376 574.216C456.376 575.528 456.792 576.632 457.624 577.528C458.472 578.424 459.536 578.872 460.816 578.872ZM470.681 580V568.432H472.193V578.008L479.873 568.432H481.385V580H479.873V570.4L472.193 580H470.681ZM476.057 565.024C476.633 565.024 477.081 564.856 477.401 564.52C477.721 564.168 477.881 563.696 477.881 563.104V562.648H479.201V563.128C479.201 563.528 479.137 563.936 479.009 564.352C478.769 564.976 478.385 565.456 477.857 565.792C477.329 566.112 476.729 566.272 476.057 566.272C475.113 566.272 474.353 565.984 473.777 565.408C473.217 564.816 472.937 564.056 472.937 563.128V562.648H474.233V563.104C474.233 563.68 474.393 564.144 474.713 564.496C475.049 564.848 475.497 565.024 476.057 565.024ZM496.219 580V569.8H491.179V568.432H502.771V569.8H497.731V580H496.219ZM510.429 568.144C512.173 568.144 513.565 568.72 514.605 569.872C515.661 571.008 516.213 572.448 516.261 574.192H506.157V574.216C506.157 575.528 506.581 576.632 507.429 577.528C508.277 578.424 509.349 578.872 510.645 578.872C512.197 578.872 513.405 578.392 514.269 577.432C514.461 577.176 514.589 577 514.653 576.904H516.117C515.733 578.216 514.701 579.208 513.021 579.88C512.413 580.152 511.621 580.288 510.645 580.288C508.917 580.288 507.477 579.704 506.325 578.536C505.189 577.368 504.621 575.928 504.621 574.216C504.621 572.488 505.165 571.048 506.253 569.896C507.357 568.728 508.749 568.144 510.429 568.144ZM510.429 569.464C509.357 569.464 508.445 569.776 507.693 570.4C506.957 571.008 506.477 571.84 506.253 572.896H514.605C514.381 571.824 513.901 570.984 513.165 570.376C512.429 569.768 511.517 569.464 510.429 569.464ZM529.068 580L524.556 575.2L520.044 580H518.196L523.62 574.216L518.172 568.432H520.14L524.58 573.208L529.068 568.432H530.94L525.516 574.192L530.94 580H529.068ZM533.985 580V568.432H535.497V573.448H542.937V568.432H544.449V580H542.937V574.816H535.497V580H533.985ZM549.196 580V568.432H550.708V578.008L558.388 568.432H559.9V580H558.388V570.4L550.708 580H549.196ZM564.618 580V568.432H566.082V573.616L573.234 568.432H575.466L567.738 573.952L575.826 580H573.594L566.082 574.456V580H564.618ZM578.517 580V568.432H580.029V578.008L587.709 568.432H589.221V580H587.709V570.4L580.029 580H578.517ZM600.431 580V568.432H601.943V578.008L609.623 568.432H611.135V580H609.623V570.4L601.943 580H600.431ZM1.416 607.592H2.904C3 607.784 3.152 608.008 3.36 608.264C3.728 608.776 4.232 609.176 4.872 609.464C5.512 609.736 6.168 609.872 6.84 609.872C7.992 609.872 8.944 609.488 9.696 608.72C10.448 607.936 10.896 606.968 11.04 605.816H5.328V604.448H11.016C10.792 602.752 9.92 601.544 8.4 600.824C7.92 600.632 7.4 600.536 6.84 600.536C6.168 600.536 5.496 600.68 4.824 600.968C4.168 601.256 3.672 601.664 3.336 602.192C3.128 602.48 2.992 602.696 2.928 602.84H1.416C1.816 601.384 2.832 600.288 4.464 599.552C5.136 599.28 5.928 599.144 6.84 599.144C8.536 599.144 9.92 599.736 10.992 600.92C12.064 602.104 12.6 603.536 12.6 605.216C12.6 606.896 12.048 608.328 10.944 609.512C9.856 610.696 8.488 611.288 6.84 611.288C5.832 611.288 4.856 611.056 3.912 610.592C2.984 610.128 2.312 609.472 1.896 608.624C1.656 608.208 1.496 607.864 1.416 607.592ZM16.9806 606.08L17.6766 599.432H26.1246L26.1246 611H24.6126L24.6126 600.8H18.8766L18.3246 606.152C18.2766 606.744 18.2206 607.232 18.1566 607.616C18.0926 608 17.9806 608.44 17.8206 608.936C17.6766 609.432 17.4846 609.824 17.2446 610.112C17.0046 610.4 16.6766 610.648 16.2606 610.856C15.8446 611.048 15.3566 611.144 14.7966 611.144H14.3166V609.752H14.6046C15.2766 609.752 15.7646 609.592 16.0686 609.272C16.3726 608.952 16.5966 608.448 16.7406 607.76C16.8686 607.008 16.9486 606.448 16.9806 606.08ZM35.796 599.144C37.54 599.144 38.932 599.72 39.972 600.872C41.028 602.008 41.58 603.448 41.628 605.192H31.524V605.216C31.524 606.528 31.948 607.632 32.796 608.528C33.644 609.424 34.716 609.872 36.012 609.872C37.564 609.872 38.772 609.392 39.636 608.432C39.828 608.176 39.956 608 40.02 607.904H41.484C41.1 609.216 40.068 610.208 38.388 610.88C37.78 611.152 36.988 611.288 36.012 611.288C34.284 611.288 32.844 610.704 31.692 609.536C30.556 608.368 29.988 606.928 29.988 605.216C29.988 603.488 30.532 602.048 31.62 600.896C32.724 599.728 34.116 599.144 35.796 599.144ZM35.796 600.464C34.724 600.464 33.812 600.776 33.06 601.4C32.324 602.008 31.844 602.84 31.62 603.896H39.972C39.748 602.824 39.268 601.984 38.532 601.376C37.796 600.768 36.884 600.464 35.796 600.464ZM45.3364 611V599.432H46.8004V604.616L53.9524 599.432H56.1844L48.4564 604.952L56.5444 611H54.3124L46.8004 605.456V611H45.3364ZM62.7422 611V600.8H57.7022V599.432H69.2942V600.8H64.2542V611H62.7422ZM74.1296 608.576V616.376H72.6416V599.432H74.1296V601.904C74.4816 601.056 75.0976 600.384 75.9776 599.888C76.8576 599.392 77.7776 599.144 78.7376 599.144C80.4656 599.144 81.8576 599.728 82.9136 600.896C83.9696 602.064 84.4976 603.504 84.4976 605.216C84.4976 606.944 83.9536 608.392 82.8656 609.56C81.7936 610.712 80.4176 611.288 78.7376 611.288C77.4096 611.288 76.3216 610.92 75.4736 610.184C74.8336 609.704 74.3856 609.168 74.1296 608.576ZM74.1056 605.216C74.1056 606.528 74.5216 607.632 75.3536 608.528C76.1856 609.408 77.2416 609.848 78.5216 609.848C79.8336 609.848 80.8976 609.4 81.7136 608.504C82.5456 607.608 82.9616 606.512 82.9616 605.216C82.9616 603.888 82.5456 602.784 81.7136 601.904C80.8816 601.008 79.8176 600.56 78.5216 600.56C77.2256 600.56 76.1616 601.016 75.3296 601.928C74.5136 602.824 74.1056 603.92 74.1056 605.216ZM93.5036 599.144C95.2156 599.144 96.6396 599.736 97.7756 600.92C98.9276 602.088 99.5036 603.52 99.5036 605.216C99.5036 606.928 98.9276 608.368 97.7756 609.536C96.6236 610.704 95.1996 611.288 93.5036 611.288C91.8076 611.288 90.3836 610.696 89.2316 609.512C88.0796 608.328 87.5036 606.896 87.5036 605.216C87.5036 603.52 88.0796 602.088 89.2316 600.92C90.3996 599.736 91.8236 599.144 93.5036 599.144ZM93.5036 609.872C94.8156 609.872 95.8876 609.424 96.7196 608.528C97.5516 607.632 97.9676 606.528 97.9676 605.216C97.9676 603.888 97.5436 602.776 96.6956 601.88C95.8636 600.984 94.7996 600.536 93.5036 600.536C92.2076 600.536 91.1436 600.992 90.3116 601.904C89.4796 602.816 89.0636 603.92 89.0636 605.216C89.0636 606.528 89.4796 607.632 90.3116 608.528C91.1596 609.424 92.2236 609.872 93.5036 609.872ZM103.368 611V599.432H104.88V604.448H112.32V599.432H113.832V611H112.32V605.816H104.88V611H103.368ZM118.579 611V599.432H120.091V609.008L127.771 599.432H129.283V611H127.771V601.4L120.091 611H118.579ZM134 611V599.432H135.464V604.616L142.616 599.432H144.848L137.12 604.952L145.208 611H142.976L135.464 605.456V611H134ZM147.899 611V599.432H149.411V609.008L157.091 599.432H158.603V611H157.091V601.4L149.411 611H147.899ZM169.814 611V599.432H175.934C177.038 599.432 177.95 599.672 178.67 600.152C179.39 600.632 179.75 601.392 179.75 602.432C179.75 603.04 179.574 603.592 179.222 604.088C178.87 604.568 178.406 604.872 177.83 605C178.534 605.128 179.102 605.44 179.534 605.936C179.966 606.416 180.182 607.008 180.182 607.712C180.182 608.832 179.782 609.664 178.982 610.208C178.182 610.736 177.19 611 176.006 611H169.814ZM175.958 600.776H171.326V604.4H175.91C177.478 604.4 178.262 603.776 178.262 602.528C178.262 601.36 177.494 600.776 175.958 600.776ZM176.054 605.744H171.326V609.656H176.03C177.758 609.656 178.622 608.992 178.622 607.664C178.622 606.384 177.766 605.744 176.054 605.744ZM203.826 609.512V593.96H205.41V609.512H207.93V614.864H206.466V611H191.01V593.96H192.594V609.512H203.826ZM215.89 599.144C217.634 599.144 219.026 599.72 220.066 600.872C221.122 602.008 221.674 603.448 221.722 605.192H211.618V605.216C211.618 606.528 212.042 607.632 212.89 608.528C213.738 609.424 214.81 609.872 216.106 609.872C217.658 609.872 218.866 609.392 219.73 608.432C219.922 608.176 220.05 608 220.114 607.904H221.578C221.194 609.216 220.162 610.208 218.482 610.88C217.874 611.152 217.082 611.288 216.106 611.288C214.378 611.288 212.938 610.704 211.786 609.536C210.65 608.368 210.082 606.928 210.082 605.216C210.082 603.488 210.626 602.048 211.714 600.896C212.818 599.728 214.21 599.144 215.89 599.144ZM215.89 600.464C214.818 600.464 213.906 600.776 213.154 601.4C212.418 602.008 211.938 602.84 211.714 603.896H220.066C219.842 602.824 219.362 601.984 218.626 601.376C217.89 600.768 216.978 600.464 215.89 600.464ZM225.454 611V599.432H226.966V604.448H234.406V599.432H235.918V611H234.406V605.816H226.966V611H225.454ZM244.289 611V600.8H239.249V599.432H250.841V600.8H245.801V611H244.289ZM255.677 608.576V616.376H254.189V599.432H255.677V601.904C256.029 601.056 256.645 600.384 257.525 599.888C258.405 599.392 259.325 599.144 260.285 599.144C262.013 599.144 263.405 599.728 264.461 600.896C265.517 602.064 266.045 603.504 266.045 605.216C266.045 606.944 265.501 608.392 264.413 609.56C263.341 610.712 261.965 611.288 260.285 611.288C258.957 611.288 257.869 610.92 257.021 610.184C256.381 609.704 255.933 609.168 255.677 608.576ZM255.653 605.216C255.653 606.528 256.069 607.632 256.901 608.528C257.733 609.408 258.789 609.848 260.069 609.848C261.381 609.848 262.445 609.4 263.261 608.504C264.093 607.608 264.509 606.512 264.509 605.216C264.509 603.888 264.093 602.784 263.261 601.904C262.429 601.008 261.365 600.56 260.069 600.56C258.773 600.56 257.709 601.016 256.877 601.928C256.061 602.824 255.653 603.92 255.653 605.216ZM279.251 611V608.504C278.931 609.352 278.339 610.032 277.475 610.544C276.627 611.04 275.723 611.288 274.763 611.288C273.083 611.288 271.715 610.696 270.659 609.512C269.603 608.328 269.075 606.896 269.075 605.216C269.075 603.504 269.603 602.064 270.659 600.896C271.731 599.728 273.099 599.144 274.763 599.144C275.723 599.144 276.619 599.384 277.451 599.864C278.299 600.344 278.899 601.008 279.251 601.856V599.432H280.763V611H279.251ZM279.299 605.216C279.299 603.92 278.891 602.824 278.075 601.928C277.275 601.016 276.243 600.56 274.979 600.56C273.699 600.56 272.651 601.016 271.835 601.928C271.035 602.84 270.635 603.936 270.635 605.216C270.635 606.144 270.859 607 271.307 607.784C271.771 608.552 272.411 609.12 273.227 609.488C273.739 609.744 274.323 609.872 274.979 609.872C276.243 609.872 277.275 609.416 278.075 608.504C278.891 607.576 279.299 606.48 279.299 605.216ZM286.652 606.08L287.348 599.432H295.796V611H294.284V600.8H288.548L287.996 606.152C287.948 606.744 287.892 607.232 287.828 607.616C287.764 608 287.652 608.44 287.492 608.936C287.348 609.432 287.156 609.824 286.916 610.112C286.676 610.4 286.348 610.648 285.932 610.856C285.516 611.048 285.028 611.144 284.468 611.144H283.988V609.752H284.276C284.948 609.752 285.436 609.592 285.74 609.272C286.044 608.952 286.268 608.448 286.412 607.76C286.54 607.008 286.62 606.448 286.652 606.08ZM302.06 603.488H305.828C307.172 603.488 308.268 603.792 309.116 604.4C309.964 605.008 310.388 605.952 310.388 607.232C310.388 608.496 309.956 609.44 309.092 610.064C308.228 610.688 307.148 611 305.852 611H300.548V599.432H302.06V603.488ZM305.708 604.856H302.06V609.632H305.708C307.788 609.632 308.828 608.832 308.828 607.232C308.828 606.384 308.532 605.776 307.94 605.408C307.348 605.04 306.604 604.856 305.708 604.856ZM313.72 611V599.432H315.232V604.448H322.672V599.432H324.184V611H322.672V605.816H315.232V611H313.72ZM334.043 599.144C335.755 599.144 337.179 599.736 338.315 600.92C339.467 602.088 340.043 603.52 340.043 605.216C340.043 606.928 339.467 608.368 338.315 609.536C337.163 610.704 335.739 611.288 334.043 611.288C332.347 611.288 330.923 610.696 329.771 609.512C328.619 608.328 328.043 606.896 328.043 605.216C328.043 603.52 328.619 602.088 329.771 600.92C330.939 599.736 332.363 599.144 334.043 599.144ZM334.043 609.872C335.355 609.872 336.427 609.424 337.259 608.528C338.091 607.632 338.507 606.528 338.507 605.216C338.507 603.888 338.083 602.776 337.235 601.88C336.403 600.984 335.339 600.536 334.043 600.536C332.747 600.536 331.683 600.992 330.851 601.904C330.019 602.816 329.603 603.92 329.603 605.216C329.603 606.528 330.019 607.632 330.851 608.528C331.699 609.424 332.763 609.872 334.043 609.872ZM343.907 611V599.432H345.419V609.008L353.099 599.432H354.611V611H353.099V601.4L345.419 611H343.907ZM349.283 596.024C349.859 596.024 350.307 595.856 350.627 595.52C350.947 595.168 351.107 594.696 351.107 594.104V593.648H352.427V594.128C352.427 594.528 352.363 594.936 352.235 595.352C351.995 595.976 351.611 596.456 351.083 596.792C350.555 597.112 349.955 597.272 349.283 597.272C348.339 597.272 347.579 596.984 347.003 596.408C346.443 595.816 346.163 595.056 346.163 594.128V593.648H347.459V594.104C347.459 594.68 347.619 595.144 347.939 595.496C348.275 595.848 348.723 596.024 349.283 596.024ZM379.789 611L377.557 606.2L368.149 606.2L365.941 611H364.357L372.277 593.864H373.501L381.445 611H379.789ZM368.821 604.76L376.909 604.76L372.853 596.024L368.821 604.76ZM389.247 609.896C391.599 609.896 392.775 609.168 392.775 607.712C392.775 606.416 391.719 605.768 389.607 605.768H387.759V604.424H389.631C391.519 604.424 392.463 603.784 392.463 602.504C392.463 601.176 391.375 600.512 389.199 600.512C387.871 600.512 386.815 600.904 386.031 601.688C385.839 601.896 385.663 602.136 385.503 602.408H384.015C384.319 601.352 384.967 600.544 385.959 599.984C386.967 599.408 388.055 599.12 389.223 599.12C390.023 599.12 390.751 599.216 391.407 599.408C392.079 599.584 392.671 599.936 393.183 600.464C393.695 600.976 393.951 601.64 393.951 602.456C393.951 603.112 393.751 603.672 393.351 604.136C392.967 604.6 392.455 604.904 391.815 605.048C392.551 605.16 393.151 605.448 393.615 605.912C394.095 606.376 394.335 606.968 394.335 607.688C394.335 608.952 393.831 609.872 392.823 610.448C391.815 611.008 390.623 611.288 389.247 611.288C388.431 611.288 387.639 611.168 386.871 610.928C386.119 610.688 385.439 610.288 384.831 609.728C384.223 609.152 383.839 608.472 383.679 607.688H385.215C385.551 608.424 386.087 608.976 386.823 609.344C387.575 609.712 388.383 609.896 389.247 609.896ZM398.329 611V599.432H399.841V609.008L407.521 599.432H409.033V611H407.521V601.4L399.841 611H398.329ZM413.774 611V599.432H415.286V609.008L422.966 599.432H424.478V611H422.966V601.4L415.286 611H413.774ZM429.076 611V607.712H430.9V611H429.076ZM442.354 611V593.96H443.938V602.024L455.002 593.96H457.306L445.786 602.36L457.738 611H455.434L443.938 602.888V611H442.354ZM465.199 599.144C466.911 599.144 468.335 599.736 469.471 600.92C470.623 602.088 471.199 603.52 471.199 605.216C471.199 606.928 470.623 608.368 469.471 609.536C468.319 610.704 466.895 611.288 465.199 611.288C463.503 611.288 462.079 610.696 460.927 609.512C459.775 608.328 459.199 606.896 459.199 605.216C459.199 603.52 459.775 602.088 460.927 600.92C462.095 599.736 463.519 599.144 465.199 599.144ZM465.199 609.872C466.511 609.872 467.583 609.424 468.415 608.528C469.247 607.632 469.663 606.528 469.663 605.216C469.663 603.888 469.239 602.776 468.391 601.88C467.559 600.984 466.495 600.536 465.199 600.536C463.903 600.536 462.839 600.992 462.007 601.904C461.175 602.816 460.759 603.92 460.759 605.216C460.759 606.528 461.175 607.632 462.007 608.528C462.855 609.424 463.919 609.872 465.199 609.872ZM475.04 611V599.432H477.152L482.144 609.2L487.112 599.432H489.152V611H487.688V601.04L482.576 611.072H481.568L476.456 601.064V611H475.04ZM493.884 611V599.432H504.108V611H502.596V600.8H495.396V611H493.884ZM518.172 611V608.504C517.852 609.352 517.26 610.032 516.396 610.544C515.548 611.04 514.644 611.288 513.684 611.288C512.004 611.288 510.636 610.696 509.58 609.512C508.524 608.328 507.996 606.896 507.996 605.216C507.996 603.504 508.524 602.064 509.58 600.896C510.652 599.728 512.02 599.144 513.684 599.144C514.644 599.144 515.54 599.384 516.372 599.864C517.22 600.344 517.82 601.008 518.172 601.856V599.432H519.684V611H518.172ZM518.22 605.216C518.22 603.92 517.812 602.824 516.996 601.928C516.196 601.016 515.164 600.56 513.9 600.56C512.62 600.56 511.572 601.016 510.756 601.928C509.956 602.84 509.556 603.936 509.556 605.216C509.556 606.144 509.78 607 510.228 607.784C510.692 608.552 511.332 609.12 512.148 609.488C512.66 609.744 513.244 609.872 513.9 609.872C515.164 609.872 516.196 609.416 516.996 608.504C517.812 607.576 518.22 606.48 518.22 605.216ZM524.446 611V599.432H525.958V604.448H533.398V599.432H534.91V611H533.398V605.816H525.958V611H524.446ZM539.657 611V599.432H541.169V609.008L548.849 599.432H550.361V611H548.849V601.4L541.169 611H539.657ZM564.559 611H563.047V606.464H559.231L555.895 611H554.119L557.623 606.296C556.695 606.136 555.959 605.76 555.415 605.168C554.871 604.576 554.599 603.816 554.599 602.888C554.599 601.736 554.991 600.872 555.775 600.296C556.559 599.72 557.543 599.432 558.727 599.432H564.559V611ZM558.871 605.096H563.047V600.8H558.871C557.063 600.8 556.159 601.496 556.159 602.888C556.159 603.64 556.415 604.2 556.927 604.568C557.439 604.92 558.087 605.096 558.871 605.096ZM575.751 611V599.432H577.263V604.448H584.703V599.432H586.215V611H584.703V605.816H577.263V611H575.751ZM600.274 611V608.504C599.954 609.352 599.362 610.032 598.498 610.544C597.65 611.04 596.746 611.288 595.786 611.288C594.106 611.288 592.738 610.696 591.682 609.512C590.626 608.328 590.098 606.896 590.098 605.216C590.098 603.504 590.626 602.064 591.682 600.896C592.754 599.728 594.122 599.144 595.786 599.144C596.746 599.144 597.642 599.384 598.474 599.864C599.322 600.344 599.922 601.008 600.274 601.856V599.432H601.786V611H600.274ZM600.322 605.216C600.322 603.92 599.914 602.824 599.098 601.928C598.298 601.016 597.266 600.56 596.002 600.56C594.722 600.56 593.674 601.016 592.858 601.928C592.058 602.84 591.658 603.936 591.658 605.216C591.658 606.144 591.882 607 592.33 607.784C592.794 608.552 593.434 609.12 594.25 609.488C594.762 609.744 595.346 609.872 596.002 609.872C597.266 609.872 598.298 609.416 599.098 608.504C599.914 607.576 600.322 606.48 600.322 605.216ZM614.804 611V606.176C613.62 606.432 612.364 606.56 611.036 606.56C609.436 606.56 608.22 606.208 607.388 605.504C606.572 604.784 606.164 603.64 606.164 602.072V599.432H607.652V601.952C607.652 603.088 607.924 603.912 608.468 604.424C609.028 604.936 609.884 605.192 611.036 605.192C612.412 605.192 613.668 605.072 614.804 604.832V599.432H616.292V611H614.804ZM630.344 611V608.504C630.024 609.352 629.432 610.032 628.568 610.544C627.72 611.04 626.816 611.288 625.856 611.288C624.176 611.288 622.808 610.696 621.752 609.512C620.696 608.328 620.168 606.896 620.168 605.216C620.168 603.504 620.696 602.064 621.752 600.896C622.824 599.728 624.192 599.144 625.856 599.144C626.816 599.144 627.712 599.384 628.544 599.864C629.392 600.344 629.992 601.008 630.344 601.856V599.432H631.856V611H630.344ZM630.392 605.216C630.392 603.92 629.984 602.824 629.168 601.928C628.368 601.016 627.336 600.56 626.072 600.56C624.792 600.56 623.744 601.016 622.928 601.928C622.128 602.84 621.728 603.936 621.728 605.216C621.728 606.144 621.952 607 622.4 607.784C622.864 608.552 623.504 609.12 624.32 609.488C624.832 609.744 625.416 609.872 626.072 609.872C627.336 609.872 628.368 609.416 629.168 608.504C629.984 607.576 630.392 606.48 630.392 605.216ZM637.746 606.08L638.442 599.432H646.89V611H645.378V600.8H639.642L639.09 606.152C639.042 606.744 638.986 607.232 638.922 607.616C638.858 608 638.746 608.44 638.586 608.936C638.442 609.432 638.25 609.824 638.01 610.112C637.77 610.4 637.442 610.648 637.026 610.856C636.61 611.048 636.122 611.144 635.562 611.144H635.082V609.752H635.37C636.042 609.752 636.53 609.592 636.834 609.272C637.138 608.952 637.362 608.448 637.506 607.76C637.634 607.008 637.714 606.448 637.746 606.08ZM660.954 611V608.504C660.634 609.352 660.042 610.032 659.178 610.544C658.33 611.04 657.426 611.288 656.466 611.288C654.786 611.288 653.418 610.696 652.362 609.512C651.306 608.328 650.778 606.896 650.778 605.216C650.778 603.504 651.306 602.064 652.362 600.896C653.434 599.728 654.802 599.144 656.466 599.144C657.426 599.144 658.322 599.384 659.154 599.864C660.002 600.344 660.602 601.008 660.954 601.856V599.432H662.466V611H660.954ZM661.002 605.216C661.002 603.92 660.594 602.824 659.778 601.928C658.978 601.016 657.946 600.56 656.682 600.56C655.402 600.56 654.354 601.016 653.538 601.928C652.738 602.84 652.338 603.936 652.338 605.216C652.338 606.144 652.562 607 653.01 607.784C653.474 608.552 654.114 609.12 654.93 609.488C655.442 609.744 656.026 609.872 656.682 609.872C657.946 609.872 658.978 609.416 659.778 608.504C660.594 607.576 661.002 606.48 661.002 605.216ZM683.992 602.84H682.48C682.368 602.616 682.224 602.384 682.048 602.144C681.168 601.072 680.008 600.536 678.568 600.536C677.32 600.536 676.304 601 675.52 601.928C674.752 602.856 674.368 603.952 674.368 605.216C674.368 606.544 674.768 607.64 675.568 608.504C676.32 609.416 677.328 609.872 678.592 609.872C679.44 609.872 680.224 609.68 680.944 609.296C681.68 608.896 682.2 608.328 682.504 607.592H683.992C683.688 608.744 683.016 609.648 681.976 610.304C680.952 610.96 679.824 611.288 678.592 611.288C676.928 611.288 675.544 610.696 674.44 609.512C673.352 608.312 672.808 606.88 672.808 605.216C672.808 603.52 673.352 602.088 674.44 600.92C675.528 599.736 676.904 599.144 678.568 599.144C679.624 599.144 680.592 599.368 681.472 599.816C682.352 600.248 683.04 600.896 683.536 601.76C683.776 602.256 683.928 602.616 683.992 602.84ZM687.712 611V599.432H693.832C694.936 599.432 695.848 599.672 696.568 600.152C697.288 600.632 697.648 601.392 697.648 602.432C697.648 603.04 697.472 603.592 697.12 604.088C696.768 604.568 696.304 604.872 695.728 605C696.432 605.128 697 605.44 697.432 605.936C697.864 606.416 698.08 607.008 698.08 607.712C698.08 608.832 697.68 609.664 696.88 610.208C696.08 610.736 695.088 611 693.904 611H687.712ZM693.856 600.776H689.224V604.4H693.808C695.376 604.4 696.16 603.776 696.16 602.528C696.16 601.36 695.392 600.776 693.856 600.776ZM693.952 605.744H689.224V609.656H693.928C695.656 609.656 696.52 608.992 696.52 607.664C696.52 606.384 695.664 605.744 693.952 605.744ZM707.168 599.144C708.88 599.144 710.304 599.736 711.44 600.92C712.592 602.088 713.168 603.52 713.168 605.216C713.168 606.928 712.592 608.368 711.44 609.536C710.288 610.704 708.864 611.288 707.168 611.288C705.472 611.288 704.048 610.696 702.896 609.512C701.744 608.328 701.168 606.896 701.168 605.216C701.168 603.52 701.744 602.088 702.896 600.92C704.064 599.736 705.488 599.144 707.168 599.144ZM707.168 609.872C708.48 609.872 709.552 609.424 710.384 608.528C711.216 607.632 711.632 606.528 711.632 605.216C711.632 603.888 711.208 602.776 710.36 601.88C709.528 600.984 708.464 600.536 707.168 600.536C705.872 600.536 704.808 600.992 703.976 601.904C703.144 602.816 702.728 603.92 702.728 605.216C702.728 606.528 703.144 607.632 703.976 608.528C704.824 609.424 705.888 609.872 707.168 609.872ZM717.008 611V599.432H718.52V604.448H721.04C721.232 602.896 721.872 601.624 722.96 600.632C724.048 599.64 725.352 599.144 726.872 599.144C728.568 599.144 729.976 599.736 731.096 600.92C732.216 602.104 732.776 603.536 732.776 605.216C732.776 606.912 732.208 608.352 731.072 609.536C729.936 610.704 728.536 611.288 726.872 611.288C725.288 611.288 723.952 610.768 722.864 609.728C721.776 608.688 721.16 607.384 721.016 605.816H718.52V611H717.008ZM726.872 609.872C728.168 609.872 729.216 609.424 730.016 608.528C730.816 607.616 731.216 606.512 731.216 605.216C731.216 603.92 730.808 602.816 729.992 601.904C729.176 600.992 728.136 600.536 726.872 600.536C725.592 600.536 724.552 601 723.752 601.928C722.952 602.84 722.552 603.936 722.552 605.216C722.552 606.512 722.952 607.616 723.752 608.528C724.568 609.424 725.608 609.872 726.872 609.872ZM10.68 640.632L10.68 631.8H4.92L4.488 635.712C4.36 636.816 4.2 637.816 4.008 638.712C3.816 639.544 3.576 640.184 3.288 640.632H10.68ZM1.8 645.576H0.432L0.432 640.632H1.776C2.4 639.88 2.848 638.2 3.12 635.592L3.696 630.432H12.192L12.192 640.632H14.328V645.576H12.96V642H1.8L1.8 645.576ZM22.1788 630.144C23.9228 630.144 25.3148 630.72 26.3548 631.872C27.4108 633.008 27.9628 634.448 28.0108 636.192H17.9068V636.216C17.9068 637.528 18.3308 638.632 19.1788 639.528C20.0268 640.424 21.0988 640.872 22.3948 640.872C23.9468 640.872 25.1548 640.392 26.0188 639.432C26.2108 639.176 26.3388 639 26.4028 638.904H27.8668C27.4828 640.216 26.4508 641.208 24.7708 641.88C24.1628 642.152 23.3708 642.288 22.3948 642.288C20.6668 642.288 19.2268 641.704 18.0748 640.536C16.9388 639.368 16.3708 637.928 16.3708 636.216C16.3708 634.488 16.9148 633.048 18.0028 631.896C19.1068 630.728 20.4988 630.144 22.1788 630.144ZM22.1788 631.464C21.1068 631.464 20.1948 631.776 19.4428 632.4C18.7068 633.008 18.2268 633.84 18.0028 634.896H26.3548C26.1308 633.824 25.6508 632.984 24.9148 632.376C24.1788 631.768 23.2668 631.464 22.1788 631.464ZM41.1992 642H39.6872V637.464H35.8712L32.5352 642H30.7592L34.2632 637.296C33.3352 637.136 32.5992 636.76 32.0552 636.168C31.5112 635.576 31.2392 634.816 31.2392 633.888C31.2392 632.736 31.6312 631.872 32.4152 631.296C33.1992 630.72 34.1832 630.432 35.3672 630.432H41.1992V642ZM35.5112 636.096H39.6872V631.8H35.5112C33.7032 631.8 32.7992 632.496 32.7992 633.888C32.7992 634.64 33.0552 635.2 33.5672 635.568C34.0792 635.92 34.7272 636.096 35.5112 636.096ZM49.5469 642V631.8H44.5069V630.432H56.0989V631.8H51.0589V642H49.5469ZM63.7569 630.144C65.5009 630.144 66.8929 630.72 67.9329 631.872C68.9889 633.008 69.5409 634.448 69.5889 636.192H59.4849V636.216C59.4849 637.528 59.9089 638.632 60.7569 639.528C61.6049 640.424 62.6769 640.872 63.9729 640.872C65.5249 640.872 66.7329 640.392 67.5969 639.432C67.7889 639.176 67.9169 639 67.9809 638.904H69.4449C69.0609 640.216 68.0289 641.208 66.3489 641.88C65.7409 642.152 64.9489 642.288 63.9729 642.288C62.2449 642.288 60.8049 641.704 59.6529 640.536C58.5169 639.368 57.9489 637.928 57.9489 636.216C57.9489 634.488 58.4929 633.048 59.5809 631.896C60.6849 630.728 62.0769 630.144 63.7569 630.144ZM63.7569 631.464C62.6849 631.464 61.7729 631.776 61.0209 632.4C60.2849 633.008 59.8049 633.84 59.5809 634.896H67.9329C67.7089 633.824 67.2289 632.984 66.4929 632.376C65.7569 631.768 64.8449 631.464 63.7569 631.464ZM74.0978 637.08L74.7938 630.432H83.2418V642H81.7298V631.8H75.9938L75.4418 637.152C75.3938 637.744 75.3378 638.232 75.2738 638.616C75.2098 639 75.0978 639.44 74.9378 639.936C74.7938 640.432 74.6018 640.824 74.3618 641.112C74.1218 641.4 73.7938 641.648 73.3778 641.856C72.9618 642.048 72.4738 642.144 71.9138 642.144H71.4338V640.752H71.7218C72.3938 640.752 72.8818 640.592 73.1858 640.272C73.4898 639.952 73.7138 639.448 73.8578 638.76C73.9858 638.008 74.0658 637.448 74.0978 637.08ZM89.5052 634.488H93.2732C94.6172 634.488 95.7132 634.792 96.5612 635.4C97.4092 636.008 97.8332 636.952 97.8332 638.232C97.8332 639.496 97.4012 640.44 96.5372 641.064C95.6732 641.688 94.5932 642 93.2972 642H87.9932V630.432H89.5052V634.488ZM93.1532 635.856H89.5052V640.632H93.1532C95.2332 640.632 96.2732 639.832 96.2732 638.232C96.2732 637.384 95.9772 636.776 95.3852 636.408C94.7932 636.04 94.0492 635.856 93.1532 635.856ZM101.165 642V630.432H102.677V635.448H110.117V630.432H111.629V642H110.117V636.816H102.677V642H101.165ZM121.488 630.144C123.2 630.144 124.624 630.736 125.76 631.92C126.912 633.088 127.488 634.52 127.488 636.216C127.488 637.928 126.912 639.368 125.76 640.536C124.608 641.704 123.184 642.288 121.488 642.288C119.792 642.288 118.368 641.696 117.216 640.512C116.064 639.328 115.488 637.896 115.488 636.216C115.488 634.52 116.064 633.088 117.216 631.92C118.384 630.736 119.808 630.144 121.488 630.144ZM121.488 640.872C122.8 640.872 123.872 640.424 124.704 639.528C125.536 638.632 125.952 637.528 125.952 636.216C125.952 634.888 125.528 633.776 124.68 632.88C123.848 631.984 122.784 631.536 121.488 631.536C120.192 631.536 119.128 631.992 118.296 632.904C117.464 633.816 117.048 634.92 117.048 636.216C117.048 637.528 117.464 638.632 118.296 639.528C119.144 640.424 120.208 640.872 121.488 640.872ZM141.649 633.84H140.137C140.025 633.616 139.881 633.384 139.705 633.144C138.825 632.072 137.665 631.536 136.225 631.536C134.977 631.536 133.961 632 133.177 632.928C132.409 633.856 132.025 634.952 132.025 636.216C132.025 637.544 132.425 638.64 133.225 639.504C133.977 640.416 134.985 640.872 136.249 640.872C137.097 640.872 137.881 640.68 138.601 640.296C139.337 639.896 139.857 639.328 140.161 638.592H141.649C141.345 639.744 140.673 640.648 139.633 641.304C138.609 641.96 137.481 642.288 136.249 642.288C134.585 642.288 133.201 641.696 132.097 640.512C131.009 639.312 130.465 637.88 130.465 636.216C130.465 634.52 131.009 633.088 132.097 631.92C133.185 630.736 134.561 630.144 136.225 630.144C137.281 630.144 138.249 630.368 139.129 630.816C140.009 631.248 140.697 631.896 141.193 632.76C141.433 633.256 141.585 633.616 141.649 633.84ZM148.641 642V631.8H143.601V630.432H155.193V631.8H150.153V642H148.641ZM160.052 634.488H163.82C165.164 634.488 166.26 634.792 167.108 635.4C167.956 636.008 168.38 636.952 168.38 638.232C168.38 639.496 167.948 640.44 167.084 641.064C166.22 641.688 165.14 642 163.844 642H158.54V630.432H160.052V634.488ZM163.7 635.856H160.052V640.632H163.7C165.78 640.632 166.82 639.832 166.82 638.232C166.82 637.384 166.524 636.776 165.932 636.408C165.34 636.04 164.596 635.856 163.7 635.856ZM178.181 642V630.432H179.693V640.008L187.373 630.432H188.885V642H187.373V632.4L179.693 642H178.181ZM193.602 642V630.432H195.714L200.706 640.2L205.674 630.432H207.714V642H206.25V632.04L201.138 642.072H200.13L195.018 632.064V642H193.602ZM217.558 630.144C219.27 630.144 220.694 630.736 221.83 631.92C222.982 633.088 223.558 634.52 223.558 636.216C223.558 637.928 222.982 639.368 221.83 640.536C220.678 641.704 219.254 642.288 217.558 642.288C215.862 642.288 214.438 641.696 213.286 640.512C212.134 639.328 211.558 637.896 211.558 636.216C211.558 634.52 212.134 633.088 213.286 631.92C214.454 630.736 215.878 630.144 217.558 630.144ZM217.558 640.872C218.87 640.872 219.942 640.424 220.774 639.528C221.606 638.632 222.022 637.528 222.022 636.216C222.022 634.888 221.598 633.776 220.75 632.88C219.918 631.984 218.854 631.536 217.558 631.536C216.262 631.536 215.198 631.992 214.366 632.904C213.534 633.816 213.118 634.92 213.118 636.216C213.118 637.528 213.534 638.632 214.366 639.528C215.214 640.424 216.278 640.872 217.558 640.872ZM227.423 642V630.432H228.935V640.008L236.615 630.432H238.127V642H236.615V632.4L228.935 642H227.423ZM232.799 627.024C233.375 627.024 233.823 626.856 234.143 626.52C234.463 626.168 234.623 625.696 234.623 625.104V624.648H235.943V625.128C235.943 625.528 235.879 625.936 235.751 626.352C235.511 626.976 235.127 627.456 234.599 627.792C234.071 628.112 233.471 628.272 232.799 628.272C231.855 628.272 231.095 627.984 230.519 627.408C229.959 626.816 229.679 626.056 229.679 625.128V624.648H230.975V625.104C230.975 625.68 231.135 626.144 231.455 626.496C231.791 626.848 232.239 627.024 232.799 627.024ZM249.337 642V630.432H259.561V642H258.049V631.8H250.849V642H249.337ZM265.802 639.576V647.376H264.314V630.432H265.802V632.904C266.154 632.056 266.77 631.384 267.65 630.888C268.53 630.392 269.45 630.144 270.41 630.144C272.138 630.144 273.53 630.728 274.586 631.896C275.642 633.064 276.17 634.504 276.17 636.216C276.17 637.944 275.626 639.392 274.538 640.56C273.466 641.712 272.09 642.288 270.41 642.288C269.082 642.288 267.994 641.92 267.146 641.184C266.506 640.704 266.058 640.168 265.802 639.576ZM265.778 636.216C265.778 637.528 266.194 638.632 267.026 639.528C267.858 640.408 268.914 640.848 270.194 640.848C271.506 640.848 272.57 640.4 273.386 639.504C274.218 638.608 274.634 637.512 274.634 636.216C274.634 634.888 274.218 633.784 273.386 632.904C272.554 632.008 271.49 631.56 270.194 631.56C268.898 631.56 267.834 632.016 267.002 632.928C266.186 633.824 265.778 634.92 265.778 636.216ZM285.176 630.144C286.888 630.144 288.312 630.736 289.448 631.92C290.6 633.088 291.176 634.52 291.176 636.216C291.176 637.928 290.6 639.368 289.448 640.536C288.296 641.704 286.872 642.288 285.176 642.288C283.48 642.288 282.056 641.696 280.904 640.512C279.752 639.328 279.176 637.896 279.176 636.216C279.176 634.52 279.752 633.088 280.904 631.92C282.072 630.736 283.496 630.144 285.176 630.144ZM285.176 640.872C286.488 640.872 287.56 640.424 288.392 639.528C289.224 638.632 289.64 637.528 289.64 636.216C289.64 634.888 289.216 633.776 288.368 632.88C287.536 631.984 286.472 631.536 285.176 631.536C283.88 631.536 282.816 631.992 281.984 632.904C281.152 633.816 280.736 634.92 280.736 636.216C280.736 637.528 281.152 638.632 281.984 639.528C282.832 640.424 283.896 640.872 285.176 640.872ZM303.227 640.632V631.8H297.467L297.035 635.712C296.907 636.816 296.747 637.816 296.555 638.712C296.363 639.544 296.123 640.184 295.835 640.632H303.227ZM294.347 645.576H292.979V640.632H294.323C294.947 639.88 295.395 638.2 295.667 635.592L296.243 630.432H304.739V640.632H306.875V645.576H305.507V642H294.347V645.576ZM320.483 630.432L312.707 647.376H311.147L313.667 641.88L308.219 630.432H309.923L314.459 640.128L318.923 630.432H320.483ZM323.516 642V630.432H324.98V635.616L332.132 630.432H334.364L326.636 635.952L334.724 642H332.492L324.98 636.456V642H323.516ZM346.127 640.632V630.432H347.615V640.632H349.775V645.576H348.383V642H337.415V630.432H338.927V640.632H346.127ZM352.79 642V630.432H354.302V640.008L361.982 630.432H363.494V642H361.982V632.4L354.302 642H352.79ZM368.235 642V630.432H369.747V640.008L377.427 630.432H378.939V642H377.427V632.4L369.747 642H368.235ZM404.117 642L401.885 637.2L392.477 637.2L390.269 642H388.685L396.605 624.864L397.829 624.864L405.773 642H404.117ZM393.149 635.76L401.237 635.76L397.181 627.024L393.149 635.76ZM410.576 635.424V642H409.064V630.432H410.576V632.832C411.12 631.2 412.568 630.384 414.92 630.384H417.896V631.872H414.896C412.016 631.872 410.576 633.056 410.576 635.424ZM429.608 640.608V642H427.16C425.816 642 424.808 641.688 424.136 641.064C423.464 640.424 423.128 639.432 423.128 638.088V631.8H419.408V630.432H423.128V624.96H424.64V630.432H429.608V631.8H424.64V637.848C424.64 638.84 424.848 639.552 425.264 639.984C425.696 640.4 426.408 640.608 427.4 640.608H429.608ZM437.984 630.144C439.728 630.144 441.12 630.72 442.16 631.872C443.216 633.008 443.768 634.448 443.816 636.192H433.712V636.216C433.712 637.528 434.136 638.632 434.984 639.528C435.832 640.424 436.904 640.872 438.2 640.872C439.752 640.872 440.96 640.392 441.824 639.432C442.016 639.176 442.144 639 442.208 638.904H443.672C443.288 640.216 442.256 641.208 440.576 641.88C439.968 642.152 439.176 642.288 438.2 642.288C436.472 642.288 435.032 641.704 433.88 640.536C432.744 639.368 432.176 637.928 432.176 636.216C432.176 634.488 432.72 633.048 433.808 631.896C434.912 630.728 436.304 630.144 437.984 630.144ZM437.984 631.464C436.912 631.464 436 631.776 435.248 632.4C434.512 633.008 434.032 633.84 433.808 634.896H442.16C441.936 633.824 441.456 632.984 440.72 632.376C439.984 631.768 439.072 631.464 437.984 631.464ZM447.596 642V624.336H449.108V642H447.596ZM460.368 642V630.432H461.88V640.008L469.56 630.432H471.072V642H469.56V632.4L461.88 642H460.368ZM475.79 642V630.432H477.902L482.894 640.2L487.862 630.432H489.902V642H488.438V632.04L483.326 642.072H482.318L477.206 632.064V642H475.79ZM499.554 630.144C501.298 630.144 502.69 630.72 503.73 631.872C504.786 633.008 505.338 634.448 505.386 636.192H495.282V636.216C495.282 637.528 495.706 638.632 496.554 639.528C497.402 640.424 498.474 640.872 499.77 640.872C501.322 640.872 502.53 640.392 503.394 639.432C503.586 639.176 503.714 639 503.778 638.904H505.242C504.858 640.216 503.826 641.208 502.146 641.88C501.538 642.152 500.746 642.288 499.77 642.288C498.042 642.288 496.602 641.704 495.45 640.536C494.314 639.368 493.746 637.928 493.746 636.216C493.746 634.488 494.29 633.048 495.378 631.896C496.482 630.728 497.874 630.144 499.554 630.144ZM499.554 631.464C498.482 631.464 497.57 631.776 496.818 632.4C496.082 633.008 495.602 633.84 495.378 634.896H503.73C503.506 633.824 503.026 632.984 502.29 632.376C501.554 631.768 500.642 631.464 499.554 631.464ZM514.038 630.144C515.782 630.144 517.174 630.72 518.214 631.872C519.27 633.008 519.822 634.448 519.87 636.192H509.766V636.216C509.766 637.528 510.19 638.632 511.038 639.528C511.886 640.424 512.958 640.872 514.254 640.872C515.806 640.872 517.014 640.392 517.878 639.432C518.07 639.176 518.198 639 518.262 638.904H519.726C519.342 640.216 518.31 641.208 516.63 641.88C516.022 642.152 515.23 642.288 514.254 642.288C512.526 642.288 511.086 641.704 509.934 640.536C508.798 639.368 508.23 637.928 508.23 636.216C508.23 634.488 508.774 633.048 509.862 631.896C510.966 630.728 512.358 630.144 514.038 630.144ZM514.038 631.464C512.966 631.464 512.054 631.776 511.302 632.4C510.566 633.008 510.086 633.84 509.862 634.896H518.214C517.99 633.824 517.51 632.984 516.774 632.376C516.038 631.768 515.126 631.464 514.038 631.464ZM526.992 642V631.8H521.952V630.432H533.544V631.8H528.504V642H526.992ZM546.578 633.84H545.066C544.954 633.616 544.81 633.384 544.634 633.144C543.754 632.072 542.594 631.536 541.154 631.536C539.906 631.536 538.89 632 538.106 632.928C537.338 633.856 536.954 634.952 536.954 636.216C536.954 637.544 537.354 638.64 538.154 639.504C538.906 640.416 539.914 640.872 541.178 640.872C542.026 640.872 542.81 640.68 543.53 640.296C544.266 639.896 544.786 639.328 545.09 638.592H546.578C546.274 639.744 545.602 640.648 544.562 641.304C543.538 641.96 542.41 642.288 541.178 642.288C539.514 642.288 538.13 641.696 537.026 640.512C535.938 639.312 535.394 637.88 535.394 636.216C535.394 634.52 535.938 633.088 537.026 631.92C538.114 630.736 539.49 630.144 541.154 630.144C542.21 630.144 543.178 630.368 544.058 630.816C544.938 631.248 545.626 631.896 546.122 632.76C546.362 633.256 546.514 633.616 546.578 633.84ZM559.637 642H558.125V637.464H554.309L550.973 642H549.197L552.701 637.296C551.773 637.136 551.037 636.76 550.493 636.168C549.949 635.576 549.677 634.816 549.677 633.888C549.677 632.736 550.069 631.872 550.853 631.296C551.637 630.72 552.621 630.432 553.805 630.432H559.637V642ZM553.949 636.096H558.125V631.8H553.949C552.141 631.8 551.237 632.496 551.237 633.888C551.237 634.64 551.493 635.2 552.005 635.568C552.517 635.92 553.165 636.096 553.949 636.096ZM570.829 642V630.432H576.949C578.053 630.432 578.965 630.672 579.685 631.152C580.405 631.632 580.765 632.392 580.765 633.432C580.765 634.04 580.589 634.592 580.237 635.088C579.885 635.568 579.421 635.872 578.845 636C579.549 636.128 580.117 636.44 580.549 636.936C580.981 637.416 581.197 638.008 581.197 638.712C581.197 639.832 580.797 640.664 579.997 641.208C579.197 641.736 578.205 642 577.021 642H570.829ZM576.973 631.776H572.341V635.4H576.925C578.493 635.4 579.277 634.776 579.277 633.528C579.277 632.36 578.509 631.776 576.973 631.776ZM577.069 636.744H572.341V640.656H577.045C578.773 640.656 579.637 639.992 579.637 638.664C579.637 637.384 578.781 636.744 577.069 636.744ZM595.469 633.84H593.957C593.845 633.616 593.701 633.384 593.525 633.144C592.645 632.072 591.485 631.536 590.045 631.536C588.797 631.536 587.781 632 586.997 632.928C586.229 633.856 585.845 634.952 585.845 636.216C585.845 637.544 586.245 638.64 587.045 639.504C587.797 640.416 588.805 640.872 590.069 640.872C590.917 640.872 591.701 640.68 592.421 640.296C593.157 639.896 593.677 639.328 593.981 638.592H595.469C595.165 639.744 594.493 640.648 593.453 641.304C592.429 641.96 591.301 642.288 590.069 642.288C588.405 642.288 587.021 641.696 585.917 640.512C584.829 639.312 584.285 637.88 584.285 636.216C584.285 634.52 584.829 633.088 585.917 631.92C587.005 630.736 588.381 630.144 590.045 630.144C591.101 630.144 592.069 630.368 592.949 630.816C593.829 631.248 594.517 631.896 595.013 632.76C595.253 633.256 595.405 633.616 595.469 633.84ZM604.109 630.144C605.853 630.144 607.245 630.72 608.285 631.872C609.341 633.008 609.893 634.448 609.941 636.192H599.837V636.216C599.837 637.528 600.261 638.632 601.109 639.528C601.957 640.424 603.029 640.872 604.325 640.872C605.877 640.872 607.085 640.392 607.949 639.432C608.141 639.176 608.269 639 608.333 638.904H609.797C609.413 640.216 608.381 641.208 606.701 641.88C606.093 642.152 605.301 642.288 604.325 642.288C602.597 642.288 601.157 641.704 600.005 640.536C598.869 639.368 598.301 637.928 598.301 636.216C598.301 634.488 598.845 633.048 599.933 631.896C601.037 630.728 602.429 630.144 604.109 630.144ZM604.109 631.464C603.037 631.464 602.125 631.776 601.373 632.4C600.637 633.008 600.157 633.84 599.933 634.896H608.285C608.061 633.824 607.581 632.984 606.845 632.376C606.109 631.768 605.197 631.464 604.109 631.464ZM614.129 647.016H612.977C613.889 645.224 614.385 643.552 614.465 642H613.529V638.712H615.449V641.76C615.449 643.552 615.009 645.304 614.129 647.016ZM634.773 642V637.176C633.589 637.432 632.333 637.56 631.005 637.56C629.405 637.56 628.189 637.208 627.357 636.504C626.541 635.784 626.133 634.64 626.133 633.072V630.432H627.621V632.952C627.621 634.088 627.893 634.912 628.437 635.424C628.997 635.936 629.853 636.192 631.005 636.192C632.381 636.192 633.637 636.072 634.773 635.832V630.432H636.261V642H634.773ZM644.625 642V631.8H639.585V630.432H651.177V631.8H646.137V642H644.625ZM659.027 630.144C660.739 630.144 662.163 630.736 663.299 631.92C664.451 633.088 665.027 634.52 665.027 636.216C665.027 637.928 664.451 639.368 663.299 640.536C662.147 641.704 660.723 642.288 659.027 642.288C657.331 642.288 655.907 641.696 654.755 640.512C653.603 639.328 653.027 637.896 653.027 636.216C653.027 634.52 653.603 633.088 654.755 631.92C655.923 630.736 657.347 630.144 659.027 630.144ZM659.027 640.872C660.339 640.872 661.411 640.424 662.243 639.528C663.075 638.632 663.491 637.528 663.491 636.216C663.491 634.888 663.067 633.776 662.219 632.88C661.387 631.984 660.323 631.536 659.027 631.536C657.731 631.536 656.667 631.992 655.835 632.904C655.003 633.816 654.587 634.92 654.587 636.216C654.587 637.528 655.003 638.632 655.835 639.528C656.683 640.424 657.747 640.872 659.027 640.872ZM2.376 673L2.376 661.432H3.888L3.888 666.448H11.328V661.432H12.84L12.84 673H11.328L11.328 667.816H3.888L3.888 673H2.376ZM28.1469 661.432L20.3709 678.376H18.8109L21.3309 672.88L15.8829 661.432H17.5869L22.1229 671.128L26.5869 661.432H28.1469ZM38.1853 673V667.576L31.3933 673H29.2573L36.6973 667.024L29.5693 661.432H31.7533L38.1853 666.52L38.1853 661.432H39.6493L39.6493 666.544L46.0813 661.432H48.2653L41.1613 667L48.6493 673H46.4413L39.6493 667.576V673H38.1853ZM51.3369 673L51.3369 661.432H52.8489L52.8489 666.448H60.2889L60.2889 661.432H61.8009L61.8009 673H60.2889V667.816H52.8489V673H51.3369ZM71.6599 661.144C73.3719 661.144 74.7959 661.736 75.9319 662.92C77.0839 664.088 77.6599 665.52 77.6599 667.216C77.6599 668.928 77.0839 670.368 75.9319 671.536C74.7799 672.704 73.3559 673.288 71.6599 673.288C69.9639 673.288 68.5399 672.696 67.3879 671.512C66.2359 670.328 65.6599 668.896 65.6599 667.216C65.6599 665.52 66.2359 664.088 67.3879 662.92C68.5559 661.736 69.9799 661.144 71.6599 661.144ZM71.6599 671.872C72.9719 671.872 74.0439 671.424 74.8759 670.528C75.7079 669.632 76.1239 668.528 76.1239 667.216C76.1239 665.888 75.6999 664.776 74.8519 663.88C74.0199 662.984 72.9559 662.536 71.6599 662.536C70.3639 662.536 69.2999 662.992 68.4679 663.904C67.6359 664.816 67.2199 665.92 67.2199 667.216C67.2199 668.528 67.6359 669.632 68.4679 670.528C69.3159 671.424 70.3799 671.872 71.6599 671.872ZM96.2972 671.632V662.8H90.5372L90.1052 666.712C89.9772 667.816 89.8172 668.816 89.6252 669.712C89.4332 670.544 89.1932 671.184 88.9052 671.632H96.2972ZM87.4172 676.576H86.0492V671.632H87.3932C88.0172 670.88 88.4652 669.2 88.7372 666.592L89.3132 661.432H97.8092V671.632H99.9452V676.576H98.5772V673H87.4172V676.576ZM104.238 668.08L104.934 661.432H113.382V673H111.87V662.8H106.134L105.582 668.152C105.534 668.744 105.478 669.232 105.414 669.616C105.35 670 105.238 670.44 105.078 670.936C104.934 671.432 104.742 671.824 104.502 672.112C104.262 672.4 103.934 672.648 103.518 672.856C103.102 673.048 102.614 673.144 102.054 673.144H101.574V671.752H101.862C102.534 671.752 103.022 671.592 103.326 671.272C103.63 670.952 103.854 670.448 103.998 669.76C104.126 669.008 104.206 668.448 104.238 668.08ZM127.59 673H126.078V668.464H122.262L118.926 673H117.15L120.654 668.296C119.726 668.136 118.99 667.76 118.446 667.168C117.902 666.576 117.63 665.816 117.63 664.888C117.63 663.736 118.022 662.872 118.806 662.296C119.59 661.72 120.574 661.432 121.758 661.432H127.59V673ZM121.902 667.096H126.078V662.8H121.902C120.094 662.8 119.19 663.496 119.19 664.888C119.19 665.64 119.446 666.2 119.958 666.568C120.47 666.92 121.118 667.096 121.902 667.096ZM147.086 671.632V662.8H141.326L140.894 666.712C140.766 667.816 140.606 668.816 140.414 669.712C140.222 670.544 139.982 671.184 139.694 671.632H147.086ZM138.206 676.576H136.838V671.632H138.182C138.806 670.88 139.254 669.2 139.526 666.592L140.102 661.432H148.598V671.632H150.734V676.576H149.366V673H138.206V676.576ZM158.777 661.144C160.489 661.144 161.913 661.736 163.049 662.92C164.201 664.088 164.777 665.52 164.777 667.216C164.777 668.928 164.201 670.368 163.049 671.536C161.897 672.704 160.473 673.288 158.777 673.288C157.081 673.288 155.657 672.696 154.505 671.512C153.353 670.328 152.777 668.896 152.777 667.216C152.777 665.52 153.353 664.088 154.505 662.92C155.673 661.736 157.097 661.144 158.777 661.144ZM158.777 671.872C160.089 671.872 161.161 671.424 161.993 670.528C162.825 669.632 163.241 668.528 163.241 667.216C163.241 665.888 162.817 664.776 161.969 663.88C161.137 662.984 160.073 662.536 158.777 662.536C157.481 662.536 156.417 662.992 155.585 663.904C154.753 664.816 154.337 665.92 154.337 667.216C154.337 668.528 154.753 669.632 155.585 670.528C156.433 671.424 157.497 671.872 158.777 671.872ZM168.618 673V661.432H170.73L175.722 671.2L180.69 661.432H182.73V673H181.266V663.04L176.154 673.072H175.146L170.034 663.064V673H168.618ZM196.774 673V670.504C196.454 671.352 195.862 672.032 194.998 672.544C194.15 673.04 193.246 673.288 192.286 673.288C190.606 673.288 189.238 672.696 188.182 671.512C187.126 670.328 186.598 668.896 186.598 667.216C186.598 665.504 187.126 664.064 188.182 662.896C189.254 661.728 190.622 661.144 192.286 661.144C193.246 661.144 194.142 661.384 194.974 661.864C195.822 662.344 196.422 663.008 196.774 663.856V661.432H198.286V673H196.774ZM196.822 667.216C196.822 665.92 196.414 664.824 195.598 663.928C194.798 663.016 193.766 662.56 192.502 662.56C191.222 662.56 190.174 663.016 189.358 663.928C188.558 664.84 188.158 665.936 188.158 667.216C188.158 668.144 188.382 669 188.83 669.784C189.294 670.552 189.934 671.12 190.75 671.488C191.262 671.744 191.846 671.872 192.502 671.872C193.766 671.872 194.798 671.416 195.598 670.504C196.414 669.576 196.822 668.48 196.822 667.216ZM202.904 673V669.712H204.728V673H202.904Z" fill="white"/>
</svg>
